<svg xmlns="http://www.w3.org/2000/svg" width="109" height="110" viewBox="0 0 109 110" fill="none"><path d="M30.8263 50.8571H24.5189V41.4458H71.7353C73.4677 41.4458 74.8891 40.0318 74.8891 38.3086V35.1714H43.3966V38.3086H37.0891V28.8971H81.152V38.3086C81.152 43.4783 76.9323 47.7199 71.6908 47.7199H30.7818V50.8571H30.8263Z" fill="#F00000"></path><path d="M46.5502 85.2773H37.089V50.8131H43.3964V79.0033H46.5502C48.2825 79.0033 49.7036 77.5893 49.7036 75.8661V53.9503H65.4277C70.6246 53.9503 74.8889 58.1479 74.8889 63.3616V72.7732H59.1648V66.4988H68.6257V63.3616C68.6257 61.6383 67.2046 60.2244 65.4722 60.2244H56.011V75.9101C56.011 81.0797 51.7913 85.2773 46.5502 85.2773Z" fill="#F00000"></path><path d="M12.0816 36.4527L4.26398 32.5204L6.97347 27.2181L8.21717 27.8367L6.21836 31.7692L8.70578 33.0063L10.4825 29.5157L11.6818 30.0901L9.90506 33.5808L12.7922 35.0388L12.0816 36.4527Z" fill="white"></path><path d="M16.7009 28.3227L9.8161 22.9763L10.7933 21.7391L16.5677 26.246L18.9218 23.2856L20.0322 24.1693L16.7009 28.3227Z" fill="white"></path><path d="M26.6064 18.116L25.0074 17.1882L22.2091 19.53L22.8753 21.2532L21.6316 22.3136L18.4335 13.6091L19.8105 12.4603L27.939 17.0114L26.6064 18.116ZM21.7205 18.2928L23.8525 16.4812L22.7421 15.8184L20.1658 14.1836L20.1214 14.2277L21.2763 17.0556L21.7205 18.2928Z" fill="white"></path><path d="M29.9822 12.637C30.5153 13.5207 31.3592 13.6974 32.4694 13.123C33.4466 12.5928 33.802 11.8416 33.4466 11.1789C33.269 10.8254 32.9581 10.6045 32.6027 10.6486C32.2472 10.6486 32.1142 10.6486 31.8476 10.737L30.382 11.1347C30.1599 11.223 29.9378 11.2672 29.8045 11.2672C29.6713 11.3114 29.4492 11.3114 29.1383 11.3556C28.8274 11.3556 28.5608 11.3556 28.3388 11.3114C27.8946 11.1789 27.3616 10.8254 27.0506 10.2068C26.6953 9.49984 26.6509 8.83707 26.9618 8.13009C27.2727 7.42313 27.8502 6.84871 28.7385 6.40686C29.6269 5.92085 30.4264 5.78828 31.1815 5.92085C31.9364 6.05341 32.4694 6.45105 32.8693 7.15803L31.448 7.90918C31.0038 7.15803 30.2043 7.06966 29.2715 7.5557C28.3832 7.99755 28.1167 8.66032 28.4276 9.2789C28.5608 9.54403 28.8718 9.72075 29.0494 9.76494C29.1383 9.76494 29.2716 9.76494 29.4492 9.76494C29.8045 9.72075 29.849 9.72075 30.1599 9.63237L31.6255 9.19055C33.0023 8.79289 34.2017 9.05799 34.868 10.2952C35.2677 11.0463 35.3122 11.7975 34.9568 12.5044C34.6459 13.2114 33.9796 13.83 33.0469 14.316C32.0697 14.8462 31.1815 15.023 30.382 14.8462C29.5825 14.6695 29.005 14.2276 28.6053 13.4765L29.9822 12.637Z" fill="white"></path><path d="M39.3989 11.1789L37.1779 2.78375L38.6881 2.38609L39.621 5.87672L43.885 4.7721L42.9523 1.28146L44.4625 0.883789L46.6391 9.27899L45.1289 9.67665L44.1516 6.00928L39.8874 7.1139L40.8646 10.7813L39.3989 11.1789Z" fill="white"></path><path d="M55.5224 8.6603L56.3221 0L59.8309 0.309295C61.0748 0.441851 62.0074 0.927888 62.6295 1.7674C63.2513 2.60692 63.4734 3.71156 63.3846 4.99293C63.2513 6.31846 62.8071 7.33474 62.052 8.04169C61.2969 8.74864 60.2751 9.05797 59.0316 8.9254L55.5224 8.6603ZM57.2105 7.42311L58.9428 7.59984C60.4972 7.7324 61.519 6.84869 61.7411 4.86037C61.9187 2.87203 61.0748 1.81159 59.52 1.67904L57.7877 1.5023L57.2105 7.42311Z" fill="white"></path><path d="M66.5826 10.251L69.3366 1.98837L75.0666 3.88834L74.6224 5.16971L70.4026 3.75577L69.6918 5.83248L73.3343 7.02547L72.9343 8.26266L69.2921 7.06966L68.4924 9.41147L72.7122 10.8254L72.2683 12.1068L66.5826 10.251Z" fill="white"></path><path d="M78.0424 11.93C77.554 12.8137 77.8649 13.6532 78.9309 14.2719C79.9081 14.8462 80.7074 14.7137 81.1074 14.0509C81.3295 13.6974 81.3295 13.344 81.1516 13.0789C80.9741 12.7696 80.8853 12.6812 80.6632 12.4602L79.5526 11.444C79.3751 11.2673 79.2417 11.1347 79.1084 11.0463C79.0196 10.958 78.8421 10.7812 78.6642 10.5161C78.4866 10.251 78.3979 10.0301 78.3091 9.80915C78.1758 9.3673 78.22 8.74872 78.5754 8.13011C78.9751 7.46735 79.5526 7.06968 80.3077 6.98131C81.0628 6.89293 81.8625 7.06968 82.7064 7.55573C83.5948 8.08593 84.1278 8.66035 84.3941 9.3673C84.6608 10.0743 84.6162 10.7371 84.2166 11.444L82.8397 10.6045C83.2394 9.80915 82.8839 9.1022 82.04 8.57197C81.1962 8.08593 80.4853 8.13011 80.1302 8.74872C79.9523 9.01382 79.9968 9.32311 80.0414 9.54405C80.0856 9.6324 80.1302 9.76497 80.2635 9.89753C80.4853 10.1626 80.4853 10.2068 80.7519 10.4277L81.9067 11.444C82.9727 12.3719 83.3727 13.5649 82.6618 14.7579C82.2176 15.4649 81.5958 15.9067 80.8407 15.9951C80.0414 16.0834 79.1972 15.8625 78.3091 15.3323C77.3319 14.7579 76.7098 14.0951 76.4434 13.344C76.1768 12.5928 76.2656 11.8417 76.6656 11.0905L78.0424 11.93Z" fill="white"></path><path d="M85.5047 20.502L84.3054 19.4857L89.9907 12.9021L91.19 13.9184L85.5047 20.502Z" fill="white"></path><path d="M94.4329 23.0204L97.2312 26.5994L93.4999 29.5157L92.7006 28.4994L93.6778 27.6157L93.6332 27.5715C92.6115 27.7041 91.5013 27.1738 90.7016 26.1576C89.9911 25.2297 89.7244 24.2576 89.902 23.1972C90.0798 22.1367 90.7016 21.2088 91.7676 20.3693C92.8336 19.5298 93.9441 19.1321 95.0989 19.2205C96.2094 19.3089 97.1866 19.8391 97.9863 20.8553C98.6081 21.6507 98.9189 22.446 98.9189 23.3297C98.9635 24.1692 98.6968 24.9204 98.0751 25.4948L97.0533 24.2134C97.5863 23.5065 97.4975 22.5344 96.8312 21.6949C95.8098 20.4135 94.2995 20.4577 92.7448 21.6507C91.1458 22.8879 90.9683 24.3018 91.9009 25.4948C92.7893 26.5994 94.0774 26.7762 95.188 26.0692L93.4111 23.8158L94.4329 23.0204Z" fill="white"></path><path d="M95.4543 32.7414L103.45 29.2065L104.205 30.8855L99.8073 37.2039L99.8516 37.2482L102.161 36.1435L105.848 34.5086L106.47 35.9226L98.4747 39.4573L97.7196 37.7784L102.117 31.504L102.073 31.46L99.8516 32.5204L96.1206 34.1993L95.4543 32.7414Z" fill="white"></path><path d="M103.627 47.4106L104.515 47.3223L105.004 51.4759L104.116 51.5642L103.627 47.4106Z" fill="white"></path><path d="M99.7186 65.836L101.54 65.5707L102.25 61.9919L100.651 61.0638L100.962 59.4732L108.957 64.201L108.602 65.9686L99.4077 67.5149L99.7186 65.836ZM103.405 62.6544L102.872 65.3941L104.16 65.2174L107.181 64.8639V64.7756L104.516 63.2733L103.405 62.6544Z" fill="white"></path><path d="M101.584 74.8937L99.7628 79.0473L95.4543 77.1471L95.9873 75.9984L97.2311 76.4403L97.2754 76.3519C96.6536 75.5125 96.609 74.2751 97.142 73.1264C97.6308 72.066 98.3414 71.3589 99.3631 71.0496C100.385 70.6961 101.495 70.8287 102.739 71.3589C103.983 71.9334 104.871 72.7289 105.315 73.7449C105.759 74.8053 105.715 75.8657 105.226 77.0588C104.826 77.9425 104.249 78.6497 103.494 79.0473C102.739 79.4891 101.984 79.5775 101.184 79.3565L101.851 77.8542C102.739 77.9869 103.538 77.4567 103.983 76.4846C104.649 74.9823 103.894 73.6566 102.117 72.8612C100.296 72.066 98.9189 72.5079 98.3414 73.9216C97.7641 75.2032 98.208 76.4403 99.3631 77.0588L100.518 74.4521L101.584 74.8937Z" fill="white"></path><path d="M93.3669 80.4172L100.34 85.6309L96.7424 90.403L95.6322 89.5636L98.2971 86.0285L96.5203 84.7031L94.2107 87.796L93.189 87.0006L95.4988 83.9077L93.4999 82.4054L90.8349 85.9402L89.7244 85.1007L93.3669 80.4172Z" fill="white"></path><path d="M87.4594 87.7074L93.1002 94.3354L91.6791 95.5284L84.3499 93.098L84.3056 93.1423L86.038 95.0422L88.6587 98.0911L87.4594 99.1072L81.8182 92.4795L83.2397 91.2865L90.524 93.7165L90.5686 93.6725L88.925 91.8167L86.2601 88.7238L87.4594 87.7074Z" fill="white"></path><path d="M73.2897 100.477C72.9788 99.5934 73.023 98.7536 73.423 97.9584C73.8227 97.163 74.4445 96.5002 75.3775 96.0583C76.5322 95.4841 77.5982 95.3958 78.6642 95.7933C79.7302 96.1909 80.5298 96.9864 81.1516 98.1794C81.7737 99.3724 81.9067 100.521 81.5958 101.582C81.2849 102.642 80.5744 103.482 79.4193 104.056C78.4866 104.542 77.5982 104.674 76.7098 104.498C75.8217 104.321 75.1108 103.835 74.5778 103.084L76.0438 102.333C76.7543 103.128 77.7761 103.305 78.7975 102.775C79.5081 102.421 79.9081 101.891 80.0856 101.184C80.219 100.477 80.0856 99.7257 79.686 98.8862C78.7975 97.163 77.4649 96.5888 76.0438 97.2513C74.9775 97.7815 74.489 98.7536 74.7554 99.77L73.2897 100.477Z" fill="white"></path><path d="M68.8036 98.8862L70.9802 107.326L65.1611 108.828L64.806 107.502L69.1145 106.398L68.5815 104.277L64.8503 105.249L64.5394 104.012L68.2706 103.04L67.6486 100.654L63.3401 101.758L62.9846 100.433L68.8036 98.8862Z" fill="white"></path><path d="M54.7673 101.14L54.1455 109.8L50.6363 109.535C49.3928 109.447 48.4601 109.005 47.838 108.121C47.2163 107.282 46.9499 106.221 47.0387 104.896C47.1275 103.57 47.5717 102.554 48.3268 101.802C49.0819 101.051 50.0591 100.742 51.3027 100.831L54.7673 101.14ZM53.1237 102.421L51.3918 102.289C49.7925 102.156 48.8152 103.084 48.6822 105.117C48.5489 107.105 49.3928 108.121 50.9475 108.254L52.6798 108.386L53.1237 102.421Z" fill="white"></path><path d="M42.3305 99.3724L43.8407 99.77L41.6642 108.21L40.154 107.812L42.3305 99.3724Z" fill="white"></path><path d="M33.4466 101.14L29.3158 99.1958L31.3146 94.9539L32.4694 95.4841L32.0255 96.7214L32.1142 96.7654C32.9581 96.1909 34.2017 96.1469 35.3568 96.7214C36.4227 97.2073 37.0891 97.9585 37.4 99.0189C37.7108 100.035 37.5775 101.14 37.0003 102.377C36.4227 103.614 35.5789 104.454 34.5571 104.895C33.4911 105.293 32.3806 105.249 31.2258 104.719C30.3375 104.277 29.6712 103.703 29.2714 102.952C28.8716 102.2 28.7828 101.405 29.0493 100.654L30.5151 101.361C30.3818 102.244 30.8704 103.084 31.8476 103.526C33.3136 104.233 34.6904 103.526 35.4901 101.758C36.334 99.9469 35.8898 98.6213 34.5129 97.9585C33.2245 97.3839 31.9809 97.7818 31.3146 98.9305L33.8908 100.124L33.4466 101.14Z" fill="white"></path><path d="M26.8729 91.8167L28.1166 92.7445L23.0085 99.8143L21.7648 98.8862L26.8729 91.8167Z" fill="white"></path><path d="M13.4142 91.4191L14.3914 90.447L16.2125 92.2146L21.4094 87.0449L22.5199 88.1496L17.323 93.3193L19.0997 95.0865L18.1225 96.0586L13.4142 91.4191Z" fill="white"></path><path d="M15.1022 79.0916L13.9917 80.5939L16.0794 83.5984L17.8561 83.1122L18.7889 84.4379L9.77203 86.7796L8.75043 85.2774L14.125 77.6776L15.1022 79.0916ZM14.8357 83.9077L13.2366 81.61L12.4815 82.6264L10.616 85.0124L10.6604 85.0564L13.592 84.217L14.8357 83.9077Z" fill="white"></path><path d="M12.9255 75.1146L4.88585 78.5171L4.26398 77.1031L11.0155 74.2751L9.54972 70.7847L10.8378 70.2545L12.9255 75.1146Z" fill="white"></path><path d="M9.77196 66.8964L1.19928 68.6639L0 62.7871L1.33254 62.5221L2.2209 66.8524L4.35296 66.4105L3.55343 62.6548L4.84156 62.3895L5.64108 66.1452L8.08407 65.6593L7.19571 61.3291L8.52826 61.0638L9.77196 66.8964Z" fill="white"></path><path d="M5.19678 51.3433L4.30841 51.255L4.79702 47.1014L5.68538 47.1897L5.19678 51.3433Z" fill="white"></path></svg>